<svg width="127" height="127" viewBox="0 0 127 127" fill="none" xmlns="http://www.w3.org/2000/svg">
<path d="M63.5 10.5833C92.7259 10.5833 116.417 34.2741 116.417 63.5C116.417 74.803 112.871 85.2805 106.833 93.8795L89.9583 63.5H105.833C105.832 53.7432 102.461 44.2863 96.2908 36.7289C90.1197 29.1715 81.5282 23.9775 71.9682 22.0258C62.4088 20.074 52.4686 21.4843 43.8292 26.0179C35.1897 30.5515 28.3814 37.9302 24.5561 46.9058C20.7307 55.8816 20.1232 65.9029 22.8361 75.2745C25.5491 84.6466 31.416 92.7936 39.4445 98.3382C47.473 103.882 57.1701 106.483 66.8951 105.701C76.6207 104.918 85.7774 100.8 92.8158 94.0435L98.0969 103.542C88.4936 111.864 76.2074 116.436 63.5 116.417C34.2741 116.417 10.5833 92.7259 10.5833 63.5C10.5833 34.2741 34.2741 10.5833 63.5 10.5833ZM63.5 37.0417C67.71 37.0417 71.7481 38.7142 74.7252 41.6914C77.7023 44.6685 79.375 48.7064 79.375 52.9167V58.2083H84.6666V84.6667H42.3333V58.2083H47.625V52.9167C47.625 48.7064 49.2975 44.6685 52.2747 41.6914C55.2519 38.7142 59.2899 37.0417 63.5 37.0417ZM63.5 47.625C62.2041 47.6252 60.9531 48.101 59.9842 48.9623C59.0158 49.8235 58.3972 51.0103 58.2454 52.2975L58.2083 52.9167V58.2083H68.7916V52.9167C68.7916 51.6206 68.3154 50.3696 67.4544 49.401C66.593 48.4325 65.4066 47.8137 64.1191 47.662L63.5 47.625Z" fill="url(#paint0_linear_3699_24054)"/>
<defs>
<linearGradient id="paint0_linear_3699_24054" x1="63.5" y1="-2.1413e-06" x2="63.5" y2="127" gradientUnits="userSpaceOnUse">
<stop stop-color="#1994FF"/>
<stop offset="0.979167" stop-color="#0037E0"/>
</linearGradient>
</defs>
</svg>
