<svg width="198" height="45" viewBox="0 0 198 45" fill="none" xmlns="http://www.w3.org/2000/svg">
<g clip-path="url(#clip0_3699_24014)">
<path d="M100.516 18.688C99.1882 16.3781 97.3455 14.5539 94.9778 13.2353C92.61 11.9068 89.8955 11.2525 86.8541 11.2525C83.4956 11.2525 80.5137 11.9762 77.9081 13.4138C75.2927 14.8513 73.2618 16.8639 71.8253 19.4316C70.3789 21.9993 69.6656 24.8843 69.6656 28.0965C69.6656 31.2988 70.4284 34.1838 71.9442 36.7614C73.4698 39.3292 75.5701 41.3417 78.2549 42.7793C80.9397 44.2267 83.9613 44.9405 87.3197 44.9405C90.1234 44.9405 92.61 44.4448 94.7896 43.4534C96.9592 42.462 98.9207 41.0839 100.654 39.2994L95.9784 35.0958C94.9084 36.2855 93.7295 37.1282 92.4218 37.6438C91.1141 38.1593 89.5587 38.4171 87.7358 38.4171C85.4869 38.4171 83.5749 38.0205 82.0195 37.2274C80.4542 36.4342 79.2555 35.2743 78.4035 33.7277C77.9577 32.9247 77.6307 32.0126 77.4227 31.0013H95.384H97.2861H102.15C102.19 30.8427 102.21 30.694 102.21 30.5552C102.21 30.4164 102.23 30.2875 102.269 30.1685C102.349 29.4547 102.408 28.8103 102.448 28.2452C102.487 27.6702 102.507 27.1051 102.507 26.5598C102.497 23.6253 101.833 21.0079 100.516 18.688ZM78.3143 22.5744C79.1069 21.0278 80.2264 19.848 81.6926 19.0152C83.1588 18.1824 84.8529 17.766 86.7947 17.766C88.6076 17.766 90.163 18.1428 91.4509 18.8962C92.7388 19.6497 93.7196 20.7601 94.4131 22.2175C94.7896 23.0106 95.057 23.9029 95.2155 24.8843H77.4722C77.6704 24.0615 77.9478 23.2882 78.3143 22.5744Z" fill="#1994FF"/>
<path d="M123.975 45C120.736 45 117.774 44.2763 115.089 42.8387C112.404 41.3913 110.274 39.3986 108.719 36.8506C107.153 34.3027 106.381 31.4078 106.381 28.156C106.381 24.9141 107.163 21.9993 108.719 19.4118C110.284 16.8242 112.404 14.8017 115.089 13.3642C117.774 11.9167 120.736 11.2029 123.975 11.2029C126.541 11.2029 128.959 11.6689 131.207 12.6008C133.456 13.5327 135.398 14.9405 137.013 16.844L131.742 21.236C130.672 20.0463 129.513 19.2036 128.245 18.688C126.977 18.1725 125.541 17.9147 123.916 17.9147C122.024 17.9147 120.32 18.3113 118.814 19.1044C117.308 19.8976 116.109 21.0674 115.198 22.6338C114.286 24.2003 113.831 26.0245 113.831 28.1163C113.831 30.2875 114.286 32.1315 115.198 33.6286C116.109 35.1355 117.338 36.2954 118.903 37.1282C120.468 37.961 122.212 38.3774 124.144 38.3774C125.729 38.3774 127.116 38.1295 128.325 37.6338C129.533 37.1381 130.663 36.2558 131.733 34.9967L137.003 39.4481C135.378 41.2624 133.456 42.6504 131.227 43.6021C129.008 44.5241 126.581 45 123.975 45Z" fill="#0037E0"/>
<path d="M165.812 14.7422C163.306 12.3728 159.502 11.1831 154.4 11.1831C152.111 11.1831 149.773 11.5697 147.405 12.343C145.038 13.1163 142.898 14.306 141.005 15.9319L144.621 21.3252C145.81 20.2545 147.237 19.4118 148.921 18.7773C150.605 18.1428 152.171 17.8255 153.637 17.8255C156.401 17.8255 158.521 18.4402 159.977 19.6596C161.305 20.77 162.028 22.3166 162.147 24.2796C160.839 24.1408 159.432 24.0218 157.926 23.9326C155.975 23.8136 154.162 23.7541 152.507 23.7541C149.466 23.7541 146.979 24.2498 145.038 25.2413C143.106 26.2327 141.689 27.5314 140.797 29.1573C139.906 30.7832 139.46 32.5975 139.46 34.6101C139.46 36.583 139.926 38.3675 140.857 39.9438C141.788 41.5301 143.096 42.7594 144.8 43.6517C146.494 44.544 148.455 44.9901 150.665 44.9901C152.914 44.9901 154.944 44.6629 156.738 44.0086C158.531 43.3543 159.967 42.5611 161.037 41.6391C161.483 41.2525 161.869 40.8758 162.216 40.499L162.226 44.3358H169.577V24.8843C169.577 20.5023 168.319 17.1216 165.812 14.7422ZM161.037 34.1441C160.245 35.4528 159.155 36.4739 157.748 37.2274C156.341 37.9808 154.816 38.3576 153.151 38.3576C151.021 38.3576 149.367 38.0205 148.198 37.3463C147.029 36.6722 146.444 35.6312 146.444 34.2036C146.444 33.2915 146.682 32.5083 147.158 31.8341C147.633 31.16 148.446 30.6345 149.585 30.2578C150.734 29.881 152.27 29.6927 154.211 29.6927C155.757 29.6927 157.174 29.7323 158.481 29.8116C159.749 29.891 160.978 30.0198 162.177 30.2082V30.7535C162.068 31.9531 161.681 33.0833 161.037 34.1441Z" fill="#0037E0"/>
<path d="M176.343 44.3457V0.565109H183.694V44.3457H176.343Z" fill="#0037E0"/>
<path d="M190.649 44.3457V0.565109H198V44.3457H190.649Z" fill="#0037E0"/>
<path d="M38.2606 12.8387L26.9072 17.5479C29.0471 27.4521 33.3269 36.5631 39.2414 44.3556H55.4095C46.6022 36.1666 40.4302 25.2016 38.2606 12.8387Z" fill="#0037E0"/>
<path d="M69.2396 0L57.2324 4.97687C56.6974 20.5221 49.9012 34.4712 39.2513 44.3556H55.4194C64.1375 32.8751 69.3089 18.5393 69.3089 3.01388C69.3188 2.00264 69.2891 1.00132 69.2396 0Z" fill="#1994FF"/>
<path d="M11.1255 24.0912L0 28.7013C2.27859 34.3325 5.2804 39.5869 8.89643 44.3556H25.0645C19.0411 38.7541 14.2462 31.8539 11.1255 24.0912Z" fill="#0037E0"/>
<path d="M38.2606 12.8387L24.7772 18.4303C21.924 28.503 16.3563 37.4256 8.89643 44.3556H25.0645C31.9201 35.3338 36.5764 24.5671 38.2606 12.8387Z" fill="#1994FF"/>
</g>
<defs>
<clipPath id="clip0_3699_24014">
<rect width="198" height="45" fill="white"/>
</clipPath>
</defs>
</svg>
